<?xml version="1.0" standalone="no"?>
<!DOCTYPE svg PUBLIC "-//W3C//DTD SVG 20010904//EN"
 "http://www.w3.org/TR/2001/REC-SVG-20010904/DTD/svg10.dtd">
<svg version="1.0" xmlns="http://www.w3.org/2000/svg"
 width="1024.000000pt" height="1024.000000pt" viewBox="0 0 1024.000000 1024.000000"
 preserveAspectRatio="xMidYMid meet">

<g transform="translate(0.000000,1024.000000) scale(0.100000,-0.100000)"
fill="#000000" stroke="none">
<path d="M0 5120 l0 -5120 5120 0 5120 0 0 5120 0 5120 -5120 0 -5120 0 0
-5120z m5159 3845 c215 -45 357 -158 453 -362 21 -46 43 -83 49 -83 14 0 59
-47 59 -61 0 -8 -6 -7 -17 3 -10 9 -34 23 -54 32 -30 14 -41 28 -58 74 -32 82
-74 143 -143 207 -107 99 -226 145 -388 150 -86 2 -91 1 -30 -4 l74 -6 -68
-24 c-84 -29 -101 -55 -68 -101 24 -31 28 -45 12 -35 -14 9 -12 -29 3 -44 10
-10 8 -11 -8 -5 -11 4 -17 4 -13 -1 17 -19 -44 -48 -68 -32 -7 4 -17 0 -24 -8
-7 -8 -18 -15 -25 -15 -20 0 -39 -27 -23 -33 7 -2 -19 -2 -58 1 -153 10 -364
-40 -521 -124 -46 -24 -85 -44 -88 -44 -13 0 157 200 221 260 224 210 526 309
783 255z m1477 -442 c87 -36 216 -120 306 -197 l67 -58 73 62 c105 89 211 156
301 191 345 133 518 -84 448 -560 -12 -79 -21 -145 -19 -146 2 -1 41 -15 88
-30 158 -52 315 -141 397 -227 92 -96 118 -216 70 -322 -27 -58 -90 -126 -164
-177 -65 -45 -216 -114 -307 -141 l-78 -23 6 -50 c24 -200 27 -240 17 -323
-17 -152 -66 -254 -142 -292 l-39 -20 0 64 c0 44 5 67 15 76 53 44 79 254 52
419 -9 51 -17 95 -19 97 -2 2 -71 -6 -153 -16 -83 -11 -172 -20 -200 -20 -48
-1 -51 -3 -95 -57 -25 -31 -73 -87 -107 -125 -35 -37 -63 -72 -63 -77 0 -10
126 -115 199 -164 32 -23 48 -39 40 -42 -56 -20 -103 -35 -110 -35 -5 0 -53
36 -108 80 -54 44 -102 80 -106 80 -4 0 -46 -31 -94 -68 -183 -145 -350 -222
-479 -222 -38 0 -43 2 -37 18 4 9 9 34 12 55 5 36 7 37 47 37 93 1 240 73 394
195 l83 66 -63 72 c-35 40 -83 97 -107 128 l-44 57 -91 7 c-50 4 -140 15 -199
24 -59 10 -110 15 -112 11 -2 -4 -10 -37 -17 -74 -7 -36 -16 -66 -20 -66 -5 0
-8 4 -8 8 0 5 -16 27 -35 49 -25 29 -35 51 -35 75 0 25 -6 36 -22 43 -23 10
-94 122 -84 132 3 3 35 -4 71 -15 36 -11 67 -17 69 -13 2 3 9 24 16 46 7 22
39 103 71 181 l59 141 -33 74 c-19 41 -46 112 -62 159 -15 47 -30 88 -34 92
-10 11 -208 -59 -281 -99 -36 -20 -87 -52 -113 -71 l-48 -34 3 73 3 74 99 51
c54 28 142 66 195 84 53 18 99 36 103 39 4 3 1 35 -7 71 -59 279 -34 498 67
597 64 63 97 74 203 70 73 -3 103 -9 161 -34z m-1771 -28 c105 -22 252 -77
342 -128 121 -68 91 -61 -125 28 -153 63 -263 85 -432 86 -134 0 -183 -6 -302
-37 -77 -19 -191 -71 -184 -82 3 -5 -9 -16 -27 -26 l-32 -18 25 22 c14 12 17
18 8 13 -9 -4 -41 -29 -71 -55 -53 -46 -54 -48 -47 -87 7 -39 6 -41 -32 -68
-22 -15 -53 -43 -69 -62 l-29 -36 0 27 c0 44 38 134 81 190 103 138 255 212
510 248 90 13 289 5 384 -15z m-1681 -116 c39 -31 35 -77 -17 -185 -59 -120
-62 -145 -36 -246 42 -155 24 -293 -47 -358 -45 -43 -24 -56 24 -15 l30 26 8
-23 c13 -43 7 -134 -14 -180 -26 -59 -83 -115 -146 -143 -81 -36 -111 -38
-143 -11 l-28 24 30 7 c56 14 145 67 164 99 22 37 34 93 21 101 -5 3 -14 -12
-19 -33 -21 -78 -95 -117 -246 -129 -85 -6 -137 6 -201 50 -69 46 -94 94 -94
182 1 101 25 266 45 304 9 19 23 55 31 81 33 112 166 159 326 114 62 -18 105
-52 114 -91 7 -26 0 -110 -9 -120 -3 -3 -30 6 -59 20 -91 44 -255 62 -266 30
-2 -9 11 -13 46 -13 110 0 228 -39 259 -86 26 -41 11 -146 -25 -168 -4 -2 -36
9 -70 26 -52 26 -77 32 -157 36 -111 6 -133 -12 -27 -21 152 -15 232 -61 232
-135 0 -51 -31 -92 -69 -92 -15 0 -50 7 -77 15 -56 17 -124 20 -124 5 0 -5 7
-10 15 -10 9 0 48 -11 87 -25 39 -14 84 -25 100 -25 63 0 108 57 111 140 1 29
9 55 19 67 40 44 60 132 39 172 -7 12 -5 31 4 57 30 83 5 178 -55 212 -63 36
-82 168 -37 245 47 79 105 116 183 117 37 0 59 -6 78 -21z m2137 -86 c13 -16
12 -17 -3 -4 -10 7 -18 15 -18 17 0 8 8 3 21 -13z m-1261 -16 c0 -2 -10 -12
-22 -23 l-23 -19 19 23 c18 21 26 27 26 19z m1355 -74 c-2 -7 2 -10 10 -7 27
11 166 -200 149 -227 -4 -8 -16 6 -32 37 -14 27 -44 74 -68 105 -24 31 -40 60
-36 64 4 5 2 5 -4 2 -6 -4 -19 2 -29 13 -10 11 -14 20 -10 20 5 0 -7 17 -26
37 l-34 37 42 -34 c23 -19 40 -40 38 -47z m-988 -13 c41 -18 74 -62 59 -77 -4
-4 -27 -2 -51 5 -62 16 -122 15 -178 -4 -46 -15 -92 -58 -82 -74 3 -5 1 -11
-5 -15 -20 -13 -9 51 15 88 32 47 121 94 180 96 11 0 39 -8 62 -19z m425 -15
l106 -28 -28 -27 c-40 -37 -48 -75 -23 -108 18 -24 29 -28 94 -33 90 -6 123
-23 183 -91 55 -63 71 -60 98 18 l16 49 1 -51 c1 -67 23 -137 57 -181 27 -35
27 -36 21 -163 -3 -71 -10 -138 -17 -149 -12 -24 -40 -28 -40 -6 0 22 -17 19
-54 -10 l-33 -25 -34 43 c-83 106 -187 178 -275 193 -37 5 -41 9 -58 55 -14
40 -15 57 -6 83 21 65 97 112 161 99 42 -8 86 -63 94 -116 9 -58 -15 -117 -46
-117 -21 0 -21 1 -4 20 9 10 20 39 22 64 5 42 3 48 -30 81 -39 39 -78 45 -127
20 -51 -26 -65 -86 -35 -144 13 -26 21 -29 81 -36 37 -4 90 -13 118 -20 43
-11 48 -11 32 0 -16 12 -17 18 -7 46 37 106 -12 217 -104 235 -65 12 -158 -52
-180 -124 -6 -21 -9 -22 -23 -9 -10 8 -42 27 -72 43 -45 22 -69 27 -130 28
-41 1 -85 -3 -97 -7 -20 -7 -23 -5 -23 15 0 33 -35 85 -72 109 -25 15 -44 19
-77 16 -79 -8 -132 -66 -139 -152 -3 -41 -8 -55 -20 -55 -28 0 1 -19 38 -26
35 -6 35 -6 13 10 -13 10 -23 25 -23 34 0 41 25 99 55 129 27 27 41 33 74 33
75 0 132 -50 130 -112 -1 -20 -2 -19 -15 9 -18 41 -50 63 -93 63 -27 0 -32 -3
-23 -12 17 -17 15 -48 -4 -55 -18 -7 -47 23 -38 38 9 15 -13 10 -25 -5 -21
-25 -24 -81 -7 -113 13 -25 24 -32 63 -38 l48 -8 -78 -13 c-80 -14 -125 -33
-214 -90 -29 -19 -53 -29 -53 -24 0 13 -48 35 -56 27 -4 -4 5 -22 20 -42 15
-19 24 -35 21 -35 -20 0 -49 26 -61 55 -12 29 -11 41 5 102 55 199 66 230 104
273 21 25 40 55 44 68 l6 24 22 -28 22 -27 45 31 c66 46 125 56 202 37 l61
-16 28 31 c15 17 27 39 27 51 0 27 -26 75 -47 89 -14 8 19 10 127 7 117 -4
166 -10 252 -32z m292 -84 c54 -28 92 -77 102 -131 l7 -35 -41 46 c-22 25 -47
46 -54 47 -7 0 -38 7 -68 16 -30 8 -77 16 -105 18 -42 3 -50 0 -49 -14 1 -10
-2 -15 -7 -12 -25 15 23 89 64 97 41 7 102 -5 151 -32z m-1300 -126 c53 -40
66 -92 43 -170 l-12 -39 -22 36 c-12 20 -33 44 -48 54 -24 16 -27 16 -43 1
-15 -16 -15 -17 5 -17 33 0 78 -64 77 -109 0 -20 -17 -71 -37 -115 -43 -91
-49 -91 -92 7 -31 67 -43 169 -31 252 10 65 55 115 105 115 20 0 45 -7 55 -15z
m95 -157 c-4 -33 -5 -66 -3 -72 3 -7 -2 -31 -11 -55 -8 -24 -15 -59 -15 -78 0
-19 -4 -32 -9 -28 -17 10 -31 -60 -29 -138 1 -42 -1 -80 -5 -83 -15 -15 38
-85 80 -106 24 -12 43 -25 43 -28 0 -4 35 -10 77 -14 42 -3 79 -8 81 -11 3 -3
-8 -19 -24 -37 -23 -24 -25 -29 -9 -23 46 18 107 25 127 14 16 -8 23 -8 29 2
5 9 9 10 9 3 0 -7 21 -35 46 -64 55 -60 142 -107 222 -120 110 -18 245 19 326
90 23 20 40 29 44 23 4 -6 25 -10 47 -10 49 0 114 -32 148 -73 14 -16 28 -30
30 -30 3 0 7 12 10 28 14 67 48 76 101 27 48 -44 25 -150 -45 -209 l-34 -29
-5 44 -5 44 -13 -36 c-7 -20 -10 -43 -7 -52 4 -10 -1 -18 -15 -22 -28 -9 -65
25 -81 74 -6 20 -14 39 -16 44 -8 14 -33 -22 -33 -48 0 -14 -7 -42 -15 -63
-17 -40 -92 -122 -111 -122 -17 0 -27 36 -20 66 4 13 4 35 0 49 -6 23 -8 22
-32 -24 -24 -48 -107 -140 -116 -130 -3 3 0 24 6 47 6 23 7 53 4 68 -7 26 -7
26 -46 -26 -22 -29 -68 -76 -103 -105 l-64 -53 -45 57 c-25 31 -54 73 -64 93
-14 29 -20 35 -31 27 -10 -9 -13 -5 -13 22 -1 30 -2 32 -12 15 -6 -11 -8 -42
-4 -78 l6 -59 -38 6 c-58 10 -89 25 -100 48 -6 12 -11 16 -11 9 -1 -10 -5 -9
-17 3 -13 13 -14 21 -6 40 11 23 10 24 -13 13 -14 -6 -25 -15 -25 -19 0 -4 -9
-10 -19 -14 -13 -4 -18 -11 -14 -22 6 -14 7 -14 14 3 6 15 8 11 8 -14 l1 -34
-36 43 c-20 24 -45 50 -55 57 -11 7 -17 18 -14 23 4 5 1 9 -5 9 -6 0 -8 5 -4
13 5 7 0 6 -11 -3 -14 -11 -19 -12 -22 -2 -3 6 -9 12 -14 12 -6 0 -7 -5 -3
-12 4 -7 3 -8 -5 -4 -6 4 -9 12 -6 17 4 5 3 9 -2 9 -4 0 -16 14 -25 30 -18 32
-41 41 -31 13 11 -31 -3 -11 -41 59 -21 39 -36 80 -36 100 0 41 36 122 50 113
5 -3 10 -1 10 4 0 34 -73 -15 -94 -61 -14 -33 -19 -37 -35 -28 -14 7 -21 6
-24 -3 -6 -17 -27 61 -27 101 0 44 22 94 65 146 36 44 47 68 20 46 -18 -15
-122 -23 -130 -10 -3 5 11 19 32 30 33 18 34 20 11 15 -37 -7 -35 -1 6 23 19
12 51 45 70 74 43 65 131 267 154 354 9 35 19 64 22 64 4 0 3 -28 -1 -62z m28
20 c-3 -8 -6 -5 -6 6 -1 11 2 17 5 13 3 -3 4 -12 1 -19z m763 -76 c75 -38 120
-98 120 -160 0 -149 -186 -226 -348 -143 -119 61 -148 207 -59 290 61 56 190
62 287 13z m245 8 c0 -16 -6 -26 -18 -28 -19 -4 -32 20 -23 44 9 25 41 13 41
-16z m756 -68 c31 -27 32 -32 31 -103 -1 -82 -18 -138 -63 -205 -32 -47 -115
-124 -134 -124 -7 0 -17 36 -25 99 -13 96 -12 100 9 130 24 33 97 81 124 81
10 0 17 4 17 9 0 37 -77 13 -137 -42 l-43 -40 0 39 c0 22 -3 49 -6 60 -11 40
102 123 168 124 16 0 41 -12 59 -28z m-2507 -53 c23 -27 26 -40 26 -101 0 -79
-13 -85 -16 -8 -3 46 -35 110 -56 110 -4 0 -8 7 -8 15 0 25 27 17 54 -16z
m1136 -5 c0 -3 -5 -25 -11 -49 -9 -36 -8 -53 6 -95 16 -49 16 -52 -1 -66 -39
-30 -100 -63 -126 -68 -42 -7 -55 -18 -32 -27 15 -6 13 -8 -11 -8 l-30 -1 43
39 c23 21 42 44 42 50 0 14 -40 14 -77 0 -37 -14 -153 -18 -177 -6 -14 7 -17
6 -11 -5 5 -7 -7 1 -25 17 l-33 30 27 -45 c14 -25 31 -44 37 -42 6 1 7 -2 4
-8 -10 -16 -39 13 -61 58 -15 33 -22 128 -9 140 3 3 18 -7 33 -21 32 -31 56
-33 93 -9 134 86 215 121 277 122 23 0 42 -3 42 -6z m-1034 -84 c24 -17 48
-39 54 -50 23 -43 5 -40 -56 10 -83 68 -82 97 2 40z m294 -5 c6 -19 19 -42 27
-51 8 -8 13 -18 9 -21 -10 -10 -101 32 -98 45 3 14 0 15 -32 2 -20 -7 -26 -6
-26 5 0 21 49 55 81 55 23 0 29 -6 39 -35z m1362 7 c35 -16 95 -62 151 -114
75 -69 99 -86 118 -82 13 2 18 2 12 -2 -7 -3 -13 -10 -13 -16 0 -11 41 -7 74
7 17 8 19 5 13 -30 -3 -21 -12 -43 -18 -49 -9 -8 -10 -8 -6 0 4 7 -10 3 -31
-8 -56 -29 -119 -21 -219 30 -76 38 -95 42 -75 16 4 -5 -1 -1 -10 8 -9 10 -18
23 -20 29 -2 6 -24 12 -48 14 -25 2 -48 4 -52 4 -14 2 -9 29 12 68 24 48 36
118 21 127 -15 10 -4 26 17 26 9 0 43 -12 74 -28z m-1502 -103 c38 -42 67
-157 40 -160 -5 -1 -15 -2 -20 -3 -6 0 -15 -7 -19 -15 -6 -10 -11 5 -15 45 -4
32 -13 83 -20 112 -7 29 -9 52 -4 52 5 0 22 -14 38 -31z m118 -72 c31 -29 28
-40 -10 -32 -40 9 -35 5 -43 38 -6 24 -5 26 11 21 11 -4 29 -16 42 -27z m568
-2 c-27 -21 -52 -21 -34 0 7 8 22 14 33 14 20 0 20 0 1 -14z m1594 -69 c-7 -9
-18 -16 -26 -16 -19 0 -28 38 -13 56 11 13 15 13 32 -5 17 -17 18 -22 7 -35z
m-1720 28 c0 -2 -9 -4 -20 -4 -11 0 -20 4 -20 9 0 5 9 7 20 4 11 -3 20 -7 20
-9z m536 -2 c17 -16 116 -52 143 -53 l26 0 -25 -11 c-34 -14 -174 -3 -235 18
-40 14 -45 19 -30 24 85 31 106 35 121 22z m-991 -52 c3 -5 1 -10 -4 -10 -6 0
-11 5 -11 10 0 6 2 10 4 10 3 0 8 -4 11 -10z m2362 -7 c45 -21 81 -76 89 -136
8 -54 -6 -63 -24 -14 -12 32 -67 105 -59 77 2 -8 7 -25 11 -37 6 -18 1 -25
-25 -39 -79 -41 -131 -39 -179 6 -27 25 -29 30 -19 59 6 18 9 35 6 38 -10 10
13 44 36 53 37 15 127 11 164 -7z m-407 -133 c7 -14 22 -35 33 -47 l20 -23
-20 0 c-11 0 -37 17 -56 37 -20 20 -46 37 -57 38 -18 2 -20 -2 -14 -28 3 -17
15 -44 25 -61 22 -37 25 -58 4 -30 -8 10 -15 15 -15 9 0 -5 -5 -3 -10 5 -8 12
-10 9 -10 -14 0 -23 -3 -27 -20 -23 -15 4 -20 0 -20 -15 0 -25 -29 -88 -41
-88 -5 0 -13 10 -18 23 -5 12 -21 37 -35 56 -33 44 -35 73 -3 69 18 -2 23 2
25 29 2 18 11 38 21 45 9 7 27 30 40 51 12 20 34 40 47 43 13 3 24 10 24 15 0
5 7 9 15 9 8 0 15 8 16 18 0 9 9 -8 18 -38 10 -30 23 -66 31 -80z m-2815 69
c-4 -12 7 -31 33 -56 22 -21 47 -54 57 -73 9 -19 36 -57 58 -85 23 -27 32 -42
21 -32 -11 9 -24 17 -29 17 -4 0 -2 -8 5 -17 7 -10 -5 1 -26 24 -49 52 -132
197 -139 243 -6 33 -6 34 9 16 9 -11 14 -28 11 -37z m1822 -195 c-3 -3 -12 -4
-19 -1 -8 3 -5 6 6 6 11 1 17 -2 13 -5z m60 -10 c-3 -3 -12 -4 -19 -1 -8 3 -5
6 6 6 11 1 17 -2 13 -5z m1476 -69 c18 -39 22 -71 8 -79 -7 -5 -17 21 -36 92
-10 35 9 26 28 -13z m-2266 -27 c-3 -8 -6 -5 -6 6 -1 11 2 17 5 13 3 -3 4 -12
1 -19z m-152 -120 c-33 -93 -96 -281 -126 -377 -27 -88 -37 -77 -19 22 16 88
54 201 116 341 53 121 70 129 29 14z m2045 79 c0 -2 -15 -16 -32 -33 l-33 -29
29 33 c28 30 36 37 36 29z m530 -175 c0 -10 -6 -12 -17 -7 -10 4 -37 14 -60
22 -43 15 -60 30 -24 20 12 -3 22 1 25 10 4 10 2 13 -7 10 -11 -4 -15 21 -9
56 3 13 92 -95 92 -111z m-999 -18 c-9 -28 -9 -29 -10 -3 -1 14 2 29 6 32 11
12 13 2 4 -29z m914 -18 c62 -16 108 -39 136 -69 24 -25 64 -106 56 -114 -9
-8 -28 7 -22 17 19 31 -114 103 -233 126 -41 8 -124 14 -185 15 -111 0 -112 1
-72 15 92 35 212 39 320 10z m-1175 -39 c0 -2 -10 -12 -22 -23 l-23 -19 19 23
c18 21 26 27 26 19z m115 -27 c-10 -11 -22 -20 -28 -20 -5 0 1 9 14 20 31 25
37 25 14 0z m899 -36 c63 -10 21 -24 -70 -24 -110 0 -173 -20 -218 -70 -42
-46 -46 -70 -13 -69 12 0 54 -12 92 -26 39 -14 57 -23 40 -20 -16 4 -78 9
-137 12 l-108 5 62 75 c101 122 169 144 352 117z m-1304 -48 c0 -2 -8 -10 -17
-17 -16 -13 -17 -12 -4 4 13 16 21 21 21 13z m1286 -18 c-8 -13 -15 -26 -15
-31 0 -4 -4 -15 -9 -23 -13 -23 -21 1 -15 44 4 26 10 32 29 32 23 0 24 -1 10
-22z m-3136 -115 c85 -33 427 -189 459 -209 5 -4 -10 -99 -18 -113 -6 -10 -22
-6 -67 17 -90 45 -172 79 -374 153 -131 48 -186 73 -188 85 -2 9 -1 41 3 71
l7 54 31 -6 c18 -4 84 -27 147 -52z m1600 32 c13 -14 21 -25 18 -25 -2 0 -15
11 -28 25 -13 14 -21 25 -18 25 2 0 15 -11 28 -25z m3178 -97 l-3 -103 -50 -7
c-239 -38 -472 -99 -662 -173 -114 -45 -341 -155 -414 -201 -39 -24 -46 -25
-112 -17 l-70 8 58 39 c287 190 802 426 1170 536 91 28 86 33 83 -82z m-3258
70 c29 -18 38 -63 46 -230 l7 -147 -24 -10 c-21 -8 -119 -19 -434 -47 -56 -5
-73 -3 -83 9 -15 17 -42 222 -42 313 0 64 15 94 46 94 7 0 78 7 156 15 219 23
220 23 265 19 24 -2 52 -9 63 -16z m-2108 -78 c125 -34 500 -163 678 -233 222
-87 351 -143 568 -247 l182 -89 0 -85 c0 -47 -2 -86 -5 -86 -2 0 -33 18 -67
41 -91 58 -412 218 -558 277 -253 102 -472 165 -715 207 -82 14 -160 28 -172
31 -22 4 -23 9 -23 110 0 96 2 105 18 100 9 -2 52 -14 94 -26z m3474 19 c165
-30 383 -200 384 -300 0 -14 -7 -48 -17 -75 -44 -132 -120 -183 -185 -126 -24
21 -23 44 8 104 14 28 32 69 40 91 23 64 -5 39 -48 -44 -64 -121 -107 -151
-171 -118 -50 27 -49 52 8 185 25 59 44 109 41 111 -11 12 -30 -16 -82 -118
-58 -116 -80 -137 -129 -125 -15 4 -38 18 -52 32 -23 24 -25 31 -21 89 4 49
15 81 46 139 28 52 37 76 27 76 -7 0 -26 -18 -42 -40 -15 -23 -34 -48 -41 -58
-13 -16 -13 -16 -8 1 4 11 2 16 -5 12 -5 -4 -7 -15 -4 -26 4 -10 4 -19 0 -19
-13 0 -185 91 -185 98 0 5 10 18 23 29 79 73 263 109 413 82z m-2016 -36 c80
-7 82 -8 40 -14 -25 -4 -97 -8 -162 -8 l-116 -1 -7 -72 c-4 -40 -7 -90 -8
-110 -1 -25 -7 -38 -16 -38 -12 0 -13 18 -7 101 10 159 3 149 105 149 47 0
124 -3 171 -7z m3895 -262 c-280 -96 -325 -113 -490 -186 -143 -63 -307 -148
-457 -236 l-96 -57 -7 104 c-4 58 -6 106 -4 107 16 10 235 111 279 128 266
104 577 182 835 208 185 19 182 15 -60 -68z m-2377 -10 c255 -139 454 -224
632 -270 105 -27 362 -79 485 -99 l50 -8 0 -324 c-1 -347 -10 -449 -61 -711
-105 -541 -350 -949 -748 -1246 -112 -84 -261 -175 -383 -234 l-83 -41 -111
56 c-399 200 -718 510 -903 876 -84 168 -126 278 -167 440 -72 281 -102 581
-97 955 l3 220 179 37 c304 64 519 131 772 243 82 36 185 87 229 114 44 27 84
49 88 50 5 1 56 -25 115 -58z m-2923 -32 c373 -49 839 -192 1228 -378 l149
-71 -7 -177 c-6 -174 -15 -246 -15 -126 0 42 -5 64 -15 73 -8 7 -15 19 -15 26
0 34 -505 260 -833 373 -288 99 -707 188 -908 192 -60 1 -68 4 -78 25 -10 23
-9 24 27 24 129 0 435 -48 647 -101 317 -79 736 -239 1076 -410 54 -27 99 -45
99 -40 0 21 -348 201 -575 297 -253 106 -639 225 -880 270 -49 9 -115 23 -145
30 -54 13 -53 13 55 8 61 -2 146 -9 190 -15z m1174 -2 c52 -46 32 -51 -47 -11
-4 2 10 34 15 34 3 0 17 -10 32 -23z m4678 -4 c-3 -16 -18 -98 -34 -184 l-28
-156 -90 -6 c-209 -15 -398 -99 -561 -250 -66 -61 -150 -171 -187 -243 -14
-28 -26 -34 -89 -49 -156 -38 -417 -134 -559 -206 l-62 -31 8 89 c4 48 9 198
10 331 l2 244 139 69 c359 180 725 308 1079 375 96 18 275 41 339 43 37 1 38
0 33 -26z m-6072 -458 c173 -46 332 -194 381 -355 l18 -60 465 0 c444 0 467
-1 495 -19 16 -11 35 -30 42 -43 18 -32 17 -103 -2 -139 -19 -38 -90 -72 -142
-67 l-37 3 -3 -138 -3 -137 -74 0 -74 0 -3 68 -3 67 -68 0 c-38 0 -70 -3 -72
-6 -2 -3 -5 -33 -6 -67 l-2 -62 -73 0 -73 0 -3 138 -3 137 -186 3 -186 2 -11
-38 c-14 -47 -77 -145 -123 -191 -47 -46 -117 -93 -129 -86 -6 4 -9 1 -8 -5 2
-7 -26 -24 -62 -38 -56 -22 -81 -26 -175 -26 -122 0 -180 14 -274 67 -200 113
-314 379 -256 602 48 184 211 345 391 389 79 19 187 19 259 1z m6191 -55 c43
-11 121 -41 172 -66 l93 -47 -42 -43 -43 -43 -31 19 c-18 11 -56 31 -86 44
-46 21 -49 24 -24 23 26 -2 30 1 28 21 -2 13 1 21 5 18 4 -2 8 4 8 14 0 11 -2
17 -5 14 -2 -2 -16 3 -29 12 -27 18 -104 14 -110 -5 -2 -6 -10 -11 -18 -11 -8
0 -14 -4 -14 -10 0 -5 -8 -10 -17 -11 -10 -1 1 -6 25 -12 38 -11 25 -12 -105
-12 -147 0 -148 0 -235 -36 -49 -20 -88 -34 -88 -32 0 11 132 62 188 73 51 10
60 15 51 26 -18 22 -71 17 -103 -11 -35 -30 -40 -31 -26 -6 13 24 13 41 0 21
-8 -13 -11 -13 -22 -1 -7 8 -8 11 -2 8 6 -3 11 0 11 7 0 12 -9 11 -51 -1 -90
-26 -213 -106 -295 -192 -31 -33 -44 -43 -32 -24 12 17 52 59 89 93 75 70 226
150 327 174 92 22 285 20 381 -4z m-526 -175 c0 -2 -10 -9 -22 -15 -22 -11
-22 -10 -4 4 21 17 26 19 26 11z m1023 -64 c37 -38 67 -72 67 -75 0 -4 -125
-142 -277 -308 -153 -165 -334 -362 -401 -437 -68 -75 -133 -145 -144 -156
-23 -23 8 -52 -275 262 -89 99 -174 188 -188 197 -14 9 -25 21 -25 27 0 5 19
28 43 51 23 22 61 59 85 81 l42 41 138 -137 c75 -75 140 -137 144 -137 3 0
162 149 354 330 192 182 353 330 360 330 6 0 41 -31 77 -69z m-1390 -198 c-6
-16 -5 -17 12 -3 16 12 15 8 -5 -24 -13 -21 -34 -64 -46 -95 -13 -31 -24 -49
-24 -40 0 22 29 118 46 152 16 30 27 37 17 10z m-3652 -2413 c23 -13 26 -62 5
-79 -46 -38 -111 25 -71 69 20 22 37 25 66 10z m4517 -2 c7 -7 12 -24 12 -38
0 -31 -17 -50 -44 -50 -25 0 -56 28 -56 51 0 40 60 65 88 37z m482 -198 c0
-133 4 -210 10 -210 6 0 10 -14 10 -31 0 -29 -1 -30 -42 -27 -64 5 -68 17 -68
260 l0 207 28 4 c68 10 62 29 62 -203z m-2820 110 c0 -49 1 -90 3 -90 1 0 20
9 42 20 47 24 67 25 105 5 40 -21 52 -73 48 -202 l-3 -103 -36 0 -35 0 3 107
c3 129 -9 159 -60 149 -60 -12 -67 -27 -67 -148 l0 -108 -35 0 -35 0 0 230 0
230 35 0 35 0 0 -90z m-3510 0 l0 -50 34 0 c31 0 34 -3 38 -35 4 -33 3 -34
-37 -37 l-40 -3 -3 -77 c-3 -92 7 -118 48 -118 29 0 49 -28 35 -50 -7 -11 -94
-14 -120 -4 -32 12 -45 59 -45 159 0 95 0 95 -25 95 -21 0 -25 5 -25 29 0 25
4 30 28 33 24 3 27 7 30 45 3 38 6 44 35 52 18 5 35 10 40 10 4 1 7 -21 7 -49z
m1137 33 c-1 -77 1 -82 41 -85 34 -3 37 -6 40 -35 3 -32 2 -33 -38 -33 l-41 0
3 -97 3 -98 31 -3 c31 -3 51 -32 38 -54 -11 -17 -111 -9 -135 11 -22 18 -24
28 -27 130 -4 110 -4 111 -28 111 -20 0 -24 5 -24 29 0 24 5 30 29 34 27 6 30
11 33 49 3 45 1 43 69 57 3 0 6 -7 6 -16z m4503 -33 l0 -50 40 0 c39 0 40 -1
40 -35 0 -34 -1 -35 -40 -35 l-40 0 0 -88 c0 -96 7 -112 52 -112 24 0 28 -4
28 -30 0 -30 0 -30 -58 -30 -86 0 -96 14 -102 148 -5 104 -6 107 -30 112 -19
4 -25 11 -25 33 -1 23 4 29 27 34 23 5 27 11 30 47 3 42 7 45 71 55 4 0 7 -21
7 -49z m-2340 -10 l0 -50 40 0 c38 0 40 -2 40 -30 0 -28 -2 -30 -40 -30 l-40
0 0 -95 c0 -86 2 -95 21 -106 12 -6 30 -9 40 -6 12 3 19 0 19 -9 0 -8 -4 -14
-10 -14 -5 0 -10 -7 -10 -15 0 -20 -51 -20 -89 0 -36 18 -41 37 -41 153 0 91
0 92 -25 92 -21 0 -25 5 -25 30 0 25 4 30 25 30 19 0 25 5 25 23 0 12 3 32 6
44 5 19 14 24 57 32 4 0 7 -21 7 -49z m-4374 -62 c-3 -13 -6 -30 -6 -39 0 -12
-8 -14 -29 -11 -22 3 -36 -2 -55 -21 -25 -25 -26 -32 -26 -132 l0 -106 -37 3
-38 3 -1 158 -1 157 39 0 c33 0 38 -3 38 -22 0 -22 1 -22 27 5 19 19 38 27 61
27 31 0 34 -2 28 -22z m230 6 c42 -20 63 -58 71 -125 l6 -49 -107 0 c-116 0
-124 -5 -85 -54 17 -22 28 -26 73 -26 28 0 57 5 63 11 8 8 15 3 27 -19 15 -30
15 -30 -16 -41 -55 -19 -141 -14 -179 12 -64 43 -87 139 -51 220 35 79 118
109 198 71z m342 -17 c25 -26 27 -34 30 -135 2 -59 8 -109 13 -112 4 -3 6 -16
2 -28 -7 -27 -57 -31 -71 -6 -8 15 -12 15 -40 0 -39 -20 -111 -21 -139 -1 -12
9 -25 32 -29 51 -13 70 30 113 124 123 53 6 57 8 60 33 3 22 -2 30 -22 38 -26
10 -77 4 -107 -11 -12 -6 -19 -1 -28 18 -6 14 -9 28 -6 32 18 17 76 30 128 28
47 -3 63 -8 85 -30z m309 21 c15 -7 30 -13 32 -15 2 -1 -4 -14 -13 -27 -14
-22 -20 -24 -43 -15 -37 14 -79 2 -104 -29 -30 -39 -22 -117 15 -149 28 -24
79 -30 105 -14 11 7 18 3 28 -16 17 -32 18 -29 -17 -43 -48 -20 -144 -9 -176
21 -82 75 -68 231 26 280 40 22 106 25 147 7z m643 -14 c0 -10 8 -9 33 6 55
34 133 22 155 -24 6 -11 14 -81 17 -153 l7 -133 -46 0 -46 0 0 118 c0 78 -4
122 -12 130 -20 20 -63 14 -87 -12 -21 -23 -23 -32 -20 -128 l4 -103 -42 -3
-43 -3 0 159 c0 87 2 161 5 163 10 11 75 -4 75 -17z m486 -8 c34 -34 34 -34
34 -130 0 -56 5 -104 12 -115 6 -10 8 -26 5 -35 -8 -21 -63 -21 -75 0 -8 15
-12 15 -40 0 -44 -23 -117 -21 -142 4 -41 41 -36 107 11 142 13 10 52 23 87
29 62 11 69 18 56 53 -7 18 -83 22 -114 6 -14 -8 -21 -4 -35 16 -9 14 -14 29
-10 32 15 16 74 31 124 31 47 1 57 -3 87 -33z m404 -131 l0 -165 -40 0 -40 0
0 165 0 165 40 0 40 0 0 -165z m143 47 c15 -64 27 -123 27 -131 0 -37 17 11
45 122 l30 122 38 3 c25 2 37 -1 37 -10 0 -7 -23 -82 -51 -165 l-51 -153 -42
0 -43 0 -48 153 c-26 83 -50 158 -53 165 -3 8 9 12 39 12 l44 0 28 -118z m397
105 c41 -21 70 -74 70 -128 l0 -49 -100 0 c-110 0 -117 -5 -79 -54 17 -21 29
-26 65 -26 25 0 54 4 64 10 14 8 21 5 34 -15 16 -24 15 -25 -13 -40 -18 -9
-56 -15 -95 -15 -55 0 -69 4 -97 27 -40 34 -59 79 -59 140 0 60 25 111 69 140
38 26 101 30 141 10z m570 -15 c83 -61 80 -241 -5 -280 -14 -6 -25 -8 -25 -3
0 11 -38 21 -56 14 -23 -8 -16 -21 14 -26 23 -3 22 -4 -8 -5 -44 -2 -97 24
-124 61 -31 42 -30 159 1 203 46 64 141 81 203 36z m319 0 c42 -32 35 -73 -17
-99 -2 0 -5 -9 -6 -20 -2 -13 -17 -22 -52 -30 -66 -17 -94 -59 -62 -91 16 -16
43 -15 78 3 25 13 30 22 30 51 0 31 2 34 15 20 8 -8 15 -19 15 -25 0 -6 7 -11
15 -11 9 0 15 -9 15 -25 0 -17 6 -25 17 -25 14 0 14 -3 -5 -20 -26 -24 -48
-26 -61 -3 -8 14 -12 15 -25 4 -18 -15 -54 -23 -100 -23 -35 -1 -76 41 -76 77
0 65 35 92 131 102 51 5 59 9 59 26 0 48 -69 74 -121 46 -17 -8 -23 -7 -35 8
-20 27 -18 31 34 48 57 18 116 13 151 -13z m1464 -10 c26 -26 31 -40 35 -92
l4 -60 -101 0 c-101 0 -102 0 -95 -22 12 -42 35 -58 81 -58 24 0 53 4 63 10
14 8 21 5 34 -15 9 -13 16 -26 16 -28 0 -13 -70 -30 -120 -30 -103 0 -160 57
-160 161 0 59 13 98 43 131 32 33 55 41 115 38 44 -3 59 -9 85 -35z m274 26
c36 -13 40 -23 19 -51 -12 -15 -18 -17 -36 -7 -11 6 -35 10 -53 8 -27 -2 -32
-7 -32 -28 0 -20 9 -28 50 -43 72 -27 95 -51 95 -103 0 -35 -5 -47 -31 -68
-26 -22 -40 -26 -95 -26 -39 0 -77 6 -95 15 -29 16 -29 16 -12 40 11 15 24 22
33 19 8 -4 36 -9 62 -11 39 -5 49 -2 54 12 11 27 -6 45 -60 66 -69 26 -86 44
-86 95 0 35 5 47 31 68 35 29 98 35 156 14z m270 0 c15 -7 29 -13 31 -14 1 -1
-3 -13 -9 -28 -9 -18 -17 -25 -28 -20 -40 16 -87 16 -100 0 -19 -22 -4 -38 58
-60 60 -21 91 -56 91 -100 -1 -80 -115 -123 -216 -81 -35 14 -35 14 -18 40 12
18 22 24 33 18 9 -4 39 -7 66 -8 47 0 50 2 50 25 0 20 -8 27 -50 42 -68 25
-109 70 -101 112 3 17 20 43 36 59 25 22 40 27 80 27 27 0 62 -5 77 -12z m302
-14 c40 -33 47 -48 56 -111 l7 -53 -106 0 c-118 0 -129 -8 -81 -56 22 -22 33
-25 73 -22 26 3 54 8 62 11 17 8 46 -41 32 -55 -13 -13 -110 -28 -145 -21 -49
9 -93 40 -111 77 -21 44 -20 131 2 176 39 79 148 107 211 54z m188 6 c5 -20 7
-20 24 -4 11 10 42 19 72 22 50 4 55 2 80 -28 26 -31 27 -35 27 -166 l0 -134
-40 0 -40 0 0 118 c0 78 -4 122 -12 130 -17 17 -52 15 -78 -6 -21 -17 -22 -25
-21 -130 l2 -112 -45 0 -46 0 0 159 c0 168 0 169 48 170 16 1 26 -6 29 -19z
m583 -145 l0 -165 -40 0 -40 0 0 165 0 165 40 0 40 0 0 -165z m269 151 c40
-21 51 -56 51 -161 0 -62 4 -95 12 -97 7 -3 9 -14 4 -31 -7 -31 -39 -36 -71
-13 -17 12 -23 12 -47 0 -42 -22 -107 -18 -135 8 -32 30 -32 100 0 132 21 21
99 46 142 46 20 0 19 34 0 50 -16 14 -57 16 -104 5 -23 -5 -29 -1 -39 20 -11
24 -10 27 20 40 43 18 132 19 167 1z m470 3 c34 -12 38 -24 17 -52 -11 -14
-19 -16 -40 -7 -39 14 -72 12 -86 -5 -18 -22 1 -40 61 -60 60 -20 89 -55 89
-105 0 -30 -6 -44 -31 -64 -26 -22 -40 -26 -95 -26 -39 0 -77 6 -95 15 -29 16
-29 16 -12 40 12 16 23 22 33 18 8 -4 38 -7 65 -8 44 0 50 2 53 23 3 19 -6 27
-61 51 -66 30 -97 60 -97 96 1 29 24 66 51 81 29 16 105 18 148 3z m-3649
-114 c0 -102 2 -117 20 -135 25 -25 37 -25 78 0 l32 20 0 115 0 115 35 0 35 0
0 -122 c0 -129 -7 -158 -11 -44 -2 52 -7 74 -21 88 -10 10 -20 18 -23 18 -3 0
-5 -38 -5 -84 0 -63 -4 -87 -15 -96 -13 -11 -13 -15 -3 -21 24 -15 -17 -43
-59 -41 -28 2 -34 0 -23 -8 12 -8 11 -10 -7 -10 -33 0 -69 19 -81 44 -6 11
-13 78 -15 149 l-5 127 34 0 34 0 0 -115z m-2630 -30 l0 -35 -95 0 -95 0 0 35
0 35 95 0 95 0 0 -35z m1860 4 l0 -29 -90 0 -90 0 0 31 0 30 90 -2 90 -2 0
-28z m1780 -4 l0 -35 -95 0 c-87 0 -95 2 -95 19 0 11 -3 26 -6 35 -5 14 7 16
95 16 l101 0 0 -35z m-840 -161 c0 -2 -7 -4 -15 -4 -8 0 -15 4 -15 10 0 5 7 7
15 4 8 -4 15 -8 15 -10z"/>
<path d="M4898 8913 c7 -3 16 -2 19 1 4 3 -2 6 -13 5 -11 0 -14 -3 -6 -6z"/>
<path d="M6374 8432 c-62 -40 -101 -184 -89 -332 8 -94 35 -250 44 -250 3 0
83 11 176 25 94 14 175 25 181 25 5 0 31 28 57 63 25 35 78 101 118 147 l72
83 -34 29 c-94 80 -173 134 -256 175 -78 39 -103 47 -165 50 -60 4 -79 1 -104
-15z"/>
<path d="M7450 8427 c-36 -12 -97 -41 -135 -64 -71 -42 -206 -149 -212 -169
-2 -5 22 -39 53 -75 31 -35 81 -98 112 -139 30 -41 56 -76 58 -78 1 -2 54 -10
116 -18 63 -7 147 -20 187 -28 52 -9 74 -10 77 -2 11 31 34 225 34 289 0 261
-93 352 -290 284z"/>
<path d="M6970 8064 c-57 -62 -120 -139 -120 -148 0 -3 75 -6 166 -6 l165 0
-31 43 c-17 23 -54 68 -83 101 l-52 58 -45 -48z"/>
<path d="M6732 7748 c-49 -68 -139 -213 -188 -304 l-39 -72 18 -38 c38 -81
250 -386 274 -395 13 -5 117 -9 231 -9 l207 0 82 108 c45 59 110 154 144 211
l63 105 -51 96 c-28 54 -86 151 -129 218 -71 110 -81 121 -114 126 -19 3 -130
6 -247 6 l-212 0 -39 -52z m402 -142 c128 -75 155 -257 55 -370 -47 -53 -105
-79 -180 -78 -216 0 -318 266 -161 418 70 68 199 81 286 30z"/>
<path d="M6570 7773 c-146 -22 -210 -36 -210 -48 0 -28 78 -225 90 -225 3 0
16 20 28 45 12 25 49 88 82 140 33 52 54 94 47 94 -7 -1 -23 -3 -37 -6z"/>
<path d="M7412 7772 c3 -9 158 -273 165 -282 2 -2 8 2 13 10 13 21 80 209 80
224 0 9 -36 19 -107 30 -60 9 -119 19 -131 22 -13 3 -22 1 -20 -4z"/>
<path d="M7770 7674 c-6 -14 -10 -28 -10 -30 0 -3 -25 -68 -56 -145 l-55 -139
54 -133 c30 -72 60 -150 67 -172 7 -22 15 -43 19 -48 11 -11 168 39 258 83
142 70 219 147 238 238 11 52 -34 132 -107 193 -70 58 -186 119 -294 154 -95
31 -102 31 -114 -1z"/>
<path d="M6417 7183 c-25 -56 -77 -189 -77 -197 0 -10 289 -50 298 -41 3 2
-140 223 -180 279 -13 17 -16 14 -41 -41z"/>
<path d="M7486 7090 c-54 -78 -95 -145 -91 -148 6 -6 275 25 283 32 6 6 -24
94 -63 183 l-32 75 -97 -142z"/>
<path d="M6876 6798 c11 -13 44 -51 74 -86 62 -72 49 -75 152 41 l60 67 -153
0 -152 0 19 -22z"/>
<path d="M2918 7243 c7 -3 16 -2 19 1 4 3 -2 6 -13 5 -11 0 -14 -3 -6 -6z"/>
<path d="M5450 8156 c0 -2 8 -10 18 -17 15 -13 16 -12 3 4 -13 16 -21 21 -21
13z"/>
<path d="M4086 6914 c-8 -22 -7 -82 2 -87 4 -3 7 19 8 49 0 59 -1 62 -10 38z"/>
<path d="M6170 6721 c0 -5 9 -11 21 -14 16 -4 18 -3 8 9 -13 16 -29 19 -29 5z"/>
<path d="M4028 6315 c-59 -8 -112 -16 -118 -20 -6 -4 -8 -21 -4 -41 5 -29 2
-40 -17 -60 l-24 -26 30 9 c42 11 93 9 108 -6 20 -20 -11 -32 -74 -29 l-57 3
24 -22 c18 -16 24 -33 24 -62 0 -22 4 -42 10 -46 9 -5 318 20 373 31 l27 6 0
92 c0 51 -3 114 -6 140 l-7 46 -91 -1 c-50 -1 -139 -7 -198 -14z"/>
<path d="M4218 5983 c7 -3 16 -2 19 1 4 3 -2 6 -13 5 -11 0 -14 -3 -6 -6z"/>
<path d="M5005 5828 c-276 -144 -629 -265 -932 -318 l-73 -13 0 -148 c0 -300
28 -575 81 -799 43 -183 82 -292 159 -447 126 -255 303 -465 542 -643 79 -60
286 -183 326 -195 16 -5 46 6 109 40 699 378 1023 1014 1023 2012 l0 182 -37
7 c-327 56 -646 162 -959 316 l-129 64 -110 -58z m170 -279 c159 -84 458 -192
678 -245 109 -26 117 -30 117 -52 0 -19 -4 -23 -17 -17 -10 4 -61 18 -115 31
-159 38 -455 141 -588 204 l-125 59 -3 -225 -2 -224 -23 0 c-83 0 -181 -70
-222 -157 -52 -109 -18 -235 82 -308 23 -16 42 -37 42 -45 1 -13 0 -13 -9 0
-5 8 -10 11 -10 6 0 -12 -52 24 -70 48 -24 35 -68 133 -73 165 -9 52 -30 69
-42 32 -4 -13 -12 -17 -27 -13 -14 3 -19 1 -14 -6 5 -9 -10 -12 -53 -12 -40 0
-65 -5 -75 -15 -19 -19 -50 -19 -70 0 -8 8 -19 15 -25 15 -6 0 -11 6 -11 13 0
8 -4 7 -10 -3 -5 -8 -10 -10 -10 -5 0 6 -12 11 -27 12 -43 1 -68 7 -96 26 -15
9 -36 17 -48 17 -21 0 -21 -3 -16 -67 9 -110 -9 -17 -27 137 -9 74 -16 185
-16 246 l0 112 46 7 c73 11 340 90 454 134 58 23 159 68 225 100 66 33 122 59
125 58 3 -1 28 -14 55 -28z m87 -971 c-6 -6 -15 -8 -19 -4 -4 4 -1 11 7 16 8
5 17 7 19 4 3 -2 -1 -10 -7 -16z m-275 -60 c-3 -7 -5 -2 -5 12 0 14 2 19 5 13
2 -7 2 -19 0 -25z m-10 -65 c-3 -10 -5 -4 -5 12 0 17 2 24 5 18 2 -7 2 -21 0
-30z m-10 -65 c-3 -7 -5 -2 -5 12 0 14 2 19 5 13 2 -7 2 -19 0 -25z m153 -293
c0 -12 -18 -15 -98 -15 -81 0 -99 3 -99 15 0 12 18 15 99 15 80 0 98 -3 98
-15z"/>
<path d="M1850 5314 c-201 -73 -286 -285 -191 -478 57 -117 168 -187 294 -187
155 0 272 82 328 230 28 76 24 185 -11 256 -31 64 -94 127 -161 161 -69 34
-190 43 -259 18z"/>
<path d="M1440 2388 c-11 -12 -20 -30 -20 -40 0 -15 9 -18 63 -18 35 0 66 3
70 6 8 8 -11 57 -26 66 -23 15 -66 8 -87 -14z"/>
<path d="M1777 2278 c-50 -18 -45 -88 7 -88 38 0 66 28 66 66 0 29 -3 34 -22
33 -13 0 -35 -5 -51 -11z"/>
<path d="M3223 2280 c-26 -11 -45 -43 -37 -64 9 -24 40 -29 74 -11 25 13 30
22 30 50 0 30 -3 35 -22 34 -13 0 -33 -4 -45 -9z"/>
<path d="M4177 2398 c-9 -7 -21 -25 -26 -40 l-11 -28 70 0 c60 0 70 2 70 18 0
50 -62 80 -103 50z"/>
<path d="M4720 2392 c-15 -12 -24 -33 -27 -64 -7 -59 1 -92 29 -118 29 -27 64
-25 93 5 34 33 36 128 4 169 -24 31 -66 35 -99 8z"/>
<path d="M4851 2317 c0 -60 2 -68 11 -49 7 13 17 21 25 18 9 -4 13 5 13 32 0
42 -7 56 -32 65 -16 6 -18 -1 -17 -66z"/>
<path d="M4672 2305 c0 -16 2 -22 5 -12 2 9 2 23 0 30 -3 6 -5 -1 -5 -18z"/>
<path d="M6498 2393 c-9 -10 -19 -28 -22 -40 -7 -22 -5 -23 58 -23 63 0 66 1
66 23 0 49 -70 76 -102 40z"/>
<path d="M7350 2390 c-11 -11 -20 -29 -20 -40 0 -18 7 -20 65 -20 56 0 65 3
65 18 0 55 -70 82 -110 42z"/>
<path d="M8433 2283 c-51 -10 -60 -76 -11 -81 44 -5 68 14 68 53 0 36 -4 38
-57 28z"/>
</g>
</svg>
